<svg width="160" height="46" viewBox="0 0 160 46" fill="none" xmlns="http://www.w3.org/2000/svg">
<path d="M0.303063 35V1.4H12.7351C15.4231 1.4 17.6471 1.848 19.4071 2.744C21.1671 3.64 22.4791 4.872 23.3431 6.44C24.2071 8.008 24.6391 9.768 24.6391 11.72C24.6391 13.576 24.2231 15.288 23.3911 16.856C22.5591 18.392 21.2631 19.64 19.5031 20.6C17.7431 21.528 15.4871 21.992 12.7351 21.992H6.44706V35H0.303063ZM6.44706 17H12.3511C14.4951 17 16.0311 16.536 16.9591 15.608C17.9191 14.648 18.3991 13.352 18.3991 11.72C18.3991 10.056 17.9191 8.76 16.9591 7.832C16.0311 6.872 14.4951 6.392 12.3511 6.392H6.44706V17ZM36.0233 35.576C33.9753 35.576 32.2953 35.256 30.9833 34.616C29.6713 33.944 28.6953 33.064 28.0553 31.976C27.4153 30.888 27.0953 29.688 27.0953 28.376C27.0953 26.168 27.9593 24.376 29.6873 23C31.4153 21.624 34.0073 20.936 37.4633 20.936H43.5113V20.36C43.5113 18.728 43.0473 17.528 42.1193 16.76C41.1913 15.992 40.0393 15.608 38.6633 15.608C37.4153 15.608 36.3273 15.912 35.3993 16.52C34.4713 17.096 33.8953 17.96 33.6713 19.112H27.6713C27.8313 17.384 28.4073 15.88 29.3993 14.6C30.4233 13.32 31.7353 12.344 33.3353 11.672C34.9353 10.968 36.7273 10.616 38.7113 10.616C42.1033 10.616 44.7753 11.464 46.7273 13.16C48.6793 14.856 49.6553 17.256 49.6553 20.36V35H44.4233L43.8473 31.16C43.1433 32.44 42.1513 33.496 40.8713 34.328C39.6233 35.16 38.0073 35.576 36.0233 35.576ZM37.4153 30.776C39.1753 30.776 40.5353 30.2 41.4953 29.048C42.4873 27.896 43.1113 26.472 43.3673 24.776H38.1353C36.5033 24.776 35.3353 25.08 34.6313 25.688C33.9273 26.264 33.5753 26.984 33.5753 27.848C33.5753 28.776 33.9273 29.496 34.6313 30.008C35.3353 30.52 36.2633 30.776 37.4153 30.776ZM58.8304 7.496C57.7104 7.496 56.7824 7.16 56.0464 6.488C55.3424 5.816 54.9904 4.968 54.9904 3.944C54.9904 2.92 55.3424 2.088 56.0464 1.448C56.7824 0.775998 57.7104 0.439999 58.8304 0.439999C59.9504 0.439999 60.8624 0.775998 61.5664 1.448C62.3024 2.088 62.6704 2.92 62.6704 3.944C62.6704 4.968 62.3024 5.816 61.5664 6.488C60.8624 7.16 59.9504 7.496 58.8304 7.496ZM55.7584 35V11.192H61.9024V35H55.7584ZM68.3153 35V11.192H73.7393L74.2193 15.224C74.9553 13.816 76.0113 12.696 77.3873 11.864C78.7953 11.032 80.4433 10.616 82.3313 10.616C85.2753 10.616 87.5633 11.544 89.1953 13.4C90.8273 15.256 91.6433 17.976 91.6433 21.56V35H85.4993V22.136C85.4993 20.088 85.0833 18.52 84.2513 17.432C83.4193 16.344 82.1233 15.8 80.3633 15.8C78.6353 15.8 77.2113 16.408 76.0913 17.624C75.0033 18.84 74.4593 20.536 74.4593 22.712V35H68.3153ZM100.83 7.496C99.7104 7.496 98.7824 7.16 98.0464 6.488C97.3424 5.816 96.9904 4.968 96.9904 3.944C96.9904 2.92 97.3424 2.088 98.0464 1.448C98.7824 0.775998 99.7104 0.439999 100.83 0.439999C101.95 0.439999 102.862 0.775998 103.566 1.448C104.302 2.088 104.67 2.92 104.67 3.944C104.67 4.968 104.302 5.816 103.566 6.488C102.862 7.16 101.95 7.496 100.83 7.496ZM97.7584 35V11.192H103.902V35H97.7584ZM111.419 35V16.328H108.155V11.192H111.419V8.408C111.419 5.528 112.139 3.48 113.579 2.264C115.051 1.048 117.035 0.439999 119.531 0.439999H122.171V5.672H120.491C119.435 5.672 118.683 5.88 118.235 6.296C117.787 6.712 117.563 7.416 117.563 8.408V11.192H122.699V16.328H117.563V35H111.419ZM130.541 45.56L136.061 33.416H134.621L125.357 11.192H132.029L138.701 27.944L145.661 11.192H152.189L137.069 45.56H130.541ZM155.19 35.336C154.07 35.336 153.142 34.984 152.406 34.28C151.702 33.576 151.35 32.728 151.35 31.736C151.35 30.712 151.702 29.848 152.406 29.144C153.142 28.44 154.07 28.088 155.19 28.088C156.31 28.088 157.222 28.44 157.926 29.144C158.662 29.848 159.03 30.712 159.03 31.736C159.03 32.728 158.662 33.576 157.926 34.28C157.222 34.984 156.31 35.336 155.19 35.336Z" fill="white"/>
</svg>
